# xmcd
#
# Track frame offsets:
#	150
#	13690
#	27230
#	41442
#	55258
#	67215
#	80055
#	93710
#	107488
#	122538
#	137510
#	149233
#	163218
#	176540
#	190467
#	206206
#	221863
#	236207
#	249524
#	263471
#	277141
#	292174
#	304620
#	320025
#
# Disc length: 4430
#
# Revision: 1
# Processed by: cddbd v1.5.1PL0 Copyright (c) Steve Scherf et al.
# Submitted via: CDex 1.50Beta5
# Normalized: r0:DSETVAR1,TDELIM( - )
#
DISCID=83114c18
DTITLE=Various Artist - The Great Race Record Labels Volume 1 - Paramount
DYEAR=2000
DGENRE=Blues
TTITLE0=Blind Blake - Blind Arthur's Breakdown
TTITLE1=Willie Brown - Future Blues
TTITLE2=Son House - Dry Spell Blues Pt. 1
TTITLE3=Papa Charlie Jackson - Salty Dog Blues
TTITLE4=Skip James - Drunken Spree
TTITLE5=Blind Lemon Jefferson - See That My Grave Is Kept Clean
TTITLE6=Ma Rainey - Little Low Mamma Blues
TTITLE7=Charley Patton - High Water Everywhere Pt. 1
TTITLE8=Jabo Williams - Pratt City
TTITLE9=Elzadie Robinson - St.Louis Cyclone Blues
TTITLE10=Priscilla Stewart - Mecca Flats
TTITLE11=Henry Sims - Ferrell Blues
TTITLE12=Charlie Spand - Soon This Morning Blues
TTITLE13=Ramblin' Thomas - Ramblin' Mind Blues
TTITLE14=Big Bill Broonzy - Down In The Basement Blues
TTITLE15=Ishman Bracey - Jake Liquor Blues
TTITLE16=Gus Cannon - Poor Boy, Long Ways From Home
TTITLE17=Ida Cox - Mister Man Pt. 1
TTITLE18=Teddy Darby - Lawdy Lawdy Worried Blues
TTITLE19=Louise Johnson - Off The Wall
TTITLE20=Bumble Bee Slim - Honey Bee Blues
TTITLE21=Will Ezell - West Coast Rag
TTITLE22=Tommy Johnson - Ridin' Horse
TTITLE23=William Moore - Midnight Blues
EXTD=YEAR: 2000
EXTT0=
EXTT1=
EXTT2=
EXTT3=
EXTT4=
EXTT5=
EXTT6=
EXTT7=
EXTT8=
EXTT9=
EXTT10=
EXTT11=
EXTT12=
EXTT13=
EXTT14=
EXTT15=
EXTT16=
EXTT17=
EXTT18=
EXTT19=
EXTT20=
EXTT21=
EXTT22=
EXTT23=
PLAYORDER=
